<?xml version="1.0" encoding="UTF-8" standalone="no"?>
<!-- Created with Inkscape (http://www.inkscape.org/) -->

<svg
   xmlns:dc="http://purl.org/dc/elements/1.1/"
   xmlns:cc="http://creativecommons.org/ns#"
   xmlns:rdf="http://www.w3.org/1999/02/22-rdf-syntax-ns#"
   xmlns:svg="http://www.w3.org/2000/svg"
   xmlns="http://www.w3.org/2000/svg"
   xmlns:sodipodi="http://sodipodi.sourceforge.net/DTD/sodipodi-0.dtd"
   xmlns:inkscape="http://www.inkscape.org/namespaces/inkscape"
   width="75.590553"
   height="75.590553"
   viewBox="0 0 20 20"
   version="1.1"
   id="svg8"
   inkscape:version="0.92.4 (5da689c313, 2019-01-14)"
   sodipodi:docname="palette.svg">
  <defs
     id="defs2" />
  <sodipodi:namedview
     id="base"
     pagecolor="#ffffff"
     bordercolor="#666666"
     borderopacity="1.0"
     inkscape:pageopacity="0.0"
     inkscape:pageshadow="2"
     inkscape:zoom="7.919596"
     inkscape:cx="53.404064"
     inkscape:cy="36.161856"
     inkscape:document-units="px"
     inkscape:current-layer="layer2"
     showgrid="false"
     units="px"
     inkscape:window-width="1920"
     inkscape:window-height="1147"
     inkscape:window-x="-8"
     inkscape:window-y="-8"
     inkscape:window-maximized="1"
     showguides="true"
     inkscape:guide-bbox="true">
    <sodipodi:guide
       position="-6.1806076,10.056016"
       orientation="0,1"
       id="guide4563"
       inkscape:locked="false" />
  </sodipodi:namedview>
  <metadata
     id="metadata5">
    <rdf:RDF>
      <cc:Work
         rdf:about="">
        <dc:format>image/svg+xml</dc:format>
        <dc:type
           rdf:resource="http://purl.org/dc/dcmitype/StillImage" />
        <dc:title></dc:title>
      </cc:Work>
    </rdf:RDF>
  </metadata>
  <g
     inkscape:label="Layer 1"
     inkscape:groupmode="layer"
     id="layer1"
     transform="translate(0,-277)"
     style="display:inline" />
  <g
     inkscape:groupmode="layer"
     id="layer2"
     inkscape:label="Layer 2">
    <path
       style="display:inline;fill:#000000;fill-opacity:1;stroke:#000000;stroke-width:0.20773043px;stroke-linecap:butt;stroke-linejoin:miter;stroke-opacity:1"
       d="m 10.792106,4.8755596 c -0.132495,-4.498e-4 -0.268576,0.00119 -0.40876,0.00569 -3.3111246,0.1061402 -4.6389427,2.693264 -4.7935064,3.0602742 -1.0185532,2.1493502 -1.8033823,4.7985652 -0.35295,4.3294522 1.1154924,-0.336901 2.9980149,-1.542032 3.5672242,-1.028361 0.7646037,0.937288 0.5107908,1.460342 -0.025839,2.021065 -2.098731,1.787447 0.742664,1.848662 2.5817542,1.669665 1.275598,-0.154015 2.702702,-1.05778 3.172933,-1.804024 0.748887,-1.029248 1.3794,-2.856853 1.152384,-4.6023034 -0.317004,-1.3025324 -0.785895,-3.6375351 -4.89324,-3.651458 z M 9.7604896,6.3569683 h 1.7164834 v 1.764026 H 9.7604896 Z M 6.8547238,8.2472921 H 8.5712077 V 10.010802 H 6.8547238 Z M 12.690027,8.648818 h 1.716483 v 1.76351 h -1.716483 z m -1.488282,3.071131 h 1.716484 v 1.763509 h -1.716484 z"
       id="path24"
       inkscape:connector-curvature="0"
       sodipodi:nodetypes="cccccccccccccccccccccccccccccc" />
  </g>
</svg>
